<svg xmlns="http://www.w3.org/2000/svg" width="54.87" height="53.499" viewBox="0 0 54.87 53.499">
  <path id="github" d="M18.353,51.077c0,.221-.254.4-.575.4-.365.033-.619-.144-.619-.4,0-.221.254-.4.575-.4C18.065,50.646,18.353,50.823,18.353,51.077Zm-3.44-.5c-.077.221.144.476.476.542a.519.519,0,0,0,.686-.221c.066-.221-.144-.476-.476-.575a.568.568,0,0,0-.686.254Zm4.89-.188c-.321.077-.542.288-.509.542.033.221.321.365.653.288s.542-.288.509-.509S20.123,50.358,19.8,50.391ZM27.081,8C11.737,8,0,19.649,0,34.992A27.735,27.735,0,0,0,18.751,61.454c1.416.254,1.914-.619,1.914-1.339,0-.686-.033-4.469-.033-6.792,0,0-7.744,1.659-9.37-3.3,0,0-1.261-3.219-3.075-4.049,0,0-2.533-1.737.177-1.7a5.839,5.839,0,0,1,4.27,2.854c2.423,4.27,6.483,3.042,8.065,2.312a6.148,6.148,0,0,1,1.77-3.728c-6.184-.686-12.423-1.582-12.423-12.224a8.384,8.384,0,0,1,2.611-6.516,10.452,10.452,0,0,1,.288-7.511c2.312-.719,7.633,2.987,7.633,2.987a26.134,26.134,0,0,1,13.894,0s5.321-3.717,7.633-2.987a10.447,10.447,0,0,1,.288,7.511c1.77,1.958,2.854,3.485,2.854,6.516,0,10.675-6.516,11.527-12.7,12.224,1.018.874,1.881,2.533,1.881,5.133,0,3.728-.033,8.341-.033,9.248,0,.719.509,1.593,1.914,1.339C47.369,57.759,54.87,47.261,54.87,34.992,54.87,19.649,42.425,8,27.081,8ZM10.753,46.154c-.144.111-.111.365.077.575.177.177.431.254.575.111.144-.111.111-.365-.077-.575C11.151,46.088,10.9,46.011,10.753,46.154Zm-1.195-.9c-.077.144.033.321.254.431a.329.329,0,0,0,.476-.077c.077-.144-.033-.321-.254-.431C9.812,45.115,9.635,45.148,9.558,45.258ZM13.142,49.2c-.177.144-.111.476.144.686.254.254.575.288.719.111.144-.144.077-.476-.144-.686C13.618,49.053,13.286,49.02,13.142,49.2ZM11.881,47.57c-.177.111-.177.4,0,.653s.476.365.619.254a.5.5,0,0,0,0-.686c-.155-.254-.442-.365-.619-.221Z" transform="translate(0 -8)" fill="#fff"/>
</svg>
