<svg xmlns="http://www.w3.org/2000/svg" width="49.587" height="49.576" viewBox="0 0 49.587 49.576">
  <path id="instagram" d="M24.724,43.9A12.711,12.711,0,1,0,37.435,56.613,12.691,12.691,0,0,0,24.724,43.9Zm0,20.974a8.264,8.264,0,1,1,8.264-8.264,8.279,8.279,0,0,1-8.264,8.264Zm16.2-21.494a2.965,2.965,0,1,1-2.965-2.965A2.958,2.958,0,0,1,40.92,43.382Zm8.419,3.009c-.188-3.971-1.1-7.489-4-10.388S38.917,32.2,34.946,32c-4.093-.232-16.361-.232-20.454,0-3.96.188-7.478,1.1-10.388,3.994S.3,42.409.1,46.38c-.232,4.093-.232,16.361,0,20.454.188,3.971,1.1,7.489,4,10.388s6.416,3.805,10.388,4c4.093.232,16.361.232,20.454,0,3.971-.188,7.489-1.1,10.388-4s3.805-6.416,4-10.388c.232-4.093.232-16.35,0-20.443ZM44.05,71.227a8.366,8.366,0,0,1-4.713,4.713c-3.263,1.294-11.007,1-14.614,1s-11.361.288-14.614-1A8.366,8.366,0,0,1,5.4,71.227c-1.294-3.263-1-11.007-1-14.614S4.115,45.252,5.4,42a8.366,8.366,0,0,1,4.713-4.713c3.263-1.294,11.007-1,14.614-1s11.361-.288,14.614,1A8.366,8.366,0,0,1,44.05,42c1.294,3.263,1,11.007,1,14.614S45.345,67.974,44.05,71.227Z" transform="translate(0.075 -31.825)" fill="#fff"/>
</svg>
