<svg xmlns="http://www.w3.org/2000/svg" width="49.56" height="49.56" viewBox="0 0 49.56 49.56">
  <path id="linkedin" d="M46.02,32H3.529A3.555,3.555,0,0,0,0,35.573V77.987A3.555,3.555,0,0,0,3.529,81.56H46.02a3.565,3.565,0,0,0,3.54-3.573V35.573A3.565,3.565,0,0,0,46.02,32ZM14.979,74.48H7.633V50.828H14.99V74.48ZM11.306,47.6a4.259,4.259,0,1,1,4.259-4.259A4.261,4.261,0,0,1,11.306,47.6ZM42.513,74.48H35.168v-11.5c0-2.743-.055-6.272-3.817-6.272-3.828,0-4.414,2.987-4.414,6.073v11.7H19.592V50.828h7.047v3.23h.1A7.737,7.737,0,0,1,33.7,50.242c7.434,0,8.817,4.9,8.817,11.273Z" transform="translate(0 -32)" fill="#fff"/>
</svg>
