<svg xmlns="http://www.w3.org/2000/svg" width="55.646" height="55.646" viewBox="0 0 55.646 55.646">
  <path id="slack" d="M11.693,35.161a5.846,5.846,0,1,1-5.85-5.843h5.85Zm2.942,0a5.846,5.846,0,0,1,11.693,0V49.8a5.846,5.846,0,0,1-11.693,0V35.161Zm5.85-23.469a5.846,5.846,0,1,1,5.843-5.85v5.85Zm0,2.942a5.846,5.846,0,0,1,0,11.693H5.843a5.846,5.846,0,0,1,0-11.693H20.485Zm23.472,5.85A5.845,5.845,0,1,1,49.8,26.327H43.957V20.485Zm-2.949,0a5.845,5.845,0,0,1-11.689,0V5.843a5.845,5.845,0,0,1,11.689,0V20.485ZM35.161,43.953a5.846,5.846,0,1,1-5.846,5.85v-5.85h5.843Zm0-2.946a5.845,5.845,0,0,1,0-11.689H49.8a5.845,5.845,0,0,1,0,11.689Z" fill="#fff"/>
</svg>
