<svg xmlns="http://www.w3.org/2000/svg" width="56.64" height="46.002" viewBox="0 0 56.64 46.002">
  <path id="twitter" d="M50.818,59.546c.036.5.036,1.006.036,1.509,0,15.346-11.68,33.028-33.028,33.028A32.8,32.8,0,0,1,0,88.873a24.016,24.016,0,0,0,2.8.144,23.248,23.248,0,0,0,14.412-4.96,11.629,11.629,0,0,1-10.854-8.05,14.639,14.639,0,0,0,2.192.18,12.277,12.277,0,0,0,3.055-.4A11.61,11.61,0,0,1,2.3,64.4v-.144a11.691,11.691,0,0,0,5.247,1.473A11.626,11.626,0,0,1,3.953,50.2,33,33,0,0,0,27.888,62.35,13.1,13.1,0,0,1,27.6,59.69a11.619,11.619,0,0,1,20.09-7.943,22.854,22.854,0,0,0,7.367-2.8,11.577,11.577,0,0,1-5.1,6.4,23.271,23.271,0,0,0,6.685-1.8,24.953,24.953,0,0,1-5.822,6Z" transform="translate(0 -48.082)" fill="#fff"/>
</svg>
