<svg xmlns="http://www.w3.org/2000/svg" width="70.419" height="49.468" viewBox="0 0 70.419 49.468">
  <path id="youtube" d="M35.436,2h.392c3.618.013,21.95.145,26.893,1.474a8.847,8.847,0,0,1,6.228,6.25,39.857,39.857,0,0,1,.968,6.171l.044.458.1,1.144.035.458c.286,4.023.321,7.791.326,8.614v.33c0,.854-.044,4.877-.361,9.067l-.035.462-.04.458a43.6,43.6,0,0,1-1.034,6.857,8.834,8.834,0,0,1-6.228,6.25c-5.106,1.373-24.512,1.47-27.2,1.474h-.625c-1.36,0-6.985-.026-12.883-.229l-.748-.026-.383-.018-.753-.031-.753-.031c-4.886-.216-9.538-.563-11.681-1.144a8.834,8.834,0,0,1-6.228-6.246A43.518,43.518,0,0,1,.431,36.885L.4,36.423l-.035-.458Q.035,31.491,0,27v-.541c.009-.946.044-4.217.282-7.826l.031-.453.013-.229L.361,17.5l.1-1.144L.5,15.894A39.77,39.77,0,0,1,1.47,9.724,8.834,8.834,0,0,1,7.7,3.473c2.143-.572,6.8-.924,11.681-1.144l.748-.031.757-.026.379-.013.753-.031Q28.3,2.026,34.587,2h.849ZM28.169,16.128V37.334l18.3-10.6Z" transform="translate(0 -1.999)" fill="#fff"/>
</svg>
